<svg xmlns="http://www.w3.org/2000/svg" viewBox="0 0 32 32" width="32" height="32"><path d="M11 14 V9.5 A5 5 0 0 1 21 9.5 V14" fill="none" stroke="#1d1c1a" stroke-width="3" stroke-linecap="round" transform="rotate(-26 11 14)"></path><path fill-rule="evenodd" fill="#1d1c1a" d="M9.5 14 H22.5 A2.5 2.5 0 0 1 25 16.5 V24.5 A2.5 2.5 0 0 1 22.5 27 H9.5 A2.5 2.5 0 0 1 7 24.5 V16.5 A2.5 2.5 0 0 1 9.5 14 Z M17.7 19.6 A1.7 1.7 0 1 0 14.3 19.6 A1.7 1.7 0 1 0 17.7 19.6 Z M15.25 19.6 L16.75 19.6 L16.35 23.4 L15.65 23.4 Z"></path></svg>